<?xml version="1.0" encoding="UTF-8" standalone="no"?>
<svg
   xmlns:dc="http://purl.org/dc/elements/1.1/"
   xmlns:cc="http://creativecommons.org/ns#"
   xmlns:rdf="http://www.w3.org/1999/02/22-rdf-syntax-ns#"
   xmlns:svg="http://www.w3.org/2000/svg"
   xmlns="http://www.w3.org/2000/svg"
   xmlns:sodipodi="http://sodipodi.sourceforge.net/DTD/sodipodi-0.dtd"
   xmlns:inkscape="http://www.inkscape.org/namespaces/inkscape"
   sodipodi:docname="Khan_Academy_logo.svg"
   viewBox="0 0 340.43469 32.875374"
   height="32.875374"
   width="340.43469"
   xml:space="preserve"
   inkscape:version="1.0 (4035a4fb49, 2020-05-01)"
   version="1.1"
   id="svg2"><metadata
     id="metadata8"><rdf:RDF><cc:Work
         rdf:about=""><dc:format>image/svg+xml</dc:format><dc:type
           rdf:resource="http://purl.org/dc/dcmitype/StillImage" /><dc:title></dc:title></cc:Work></rdf:RDF></metadata><defs
     id="defs6" /><sodipodi:namedview
     fit-margin-bottom="0"
     fit-margin-right="0"
     fit-margin-left="0"
     fit-margin-top="0"
     inkscape:document-rotation="0"
     inkscape:current-layer="g10"
     inkscape:window-maximized="1"
     inkscape:window-y="-8"
     inkscape:window-x="-8"
     inkscape:cy="81.405903"
     inkscape:cx="254.59848"
     inkscape:zoom="1.612644"
     showgrid="false"
     id="namedview4"
     inkscape:window-height="837"
     inkscape:window-width="1600"
     inkscape:pageshadow="2"
     inkscape:pageopacity="0"
     guidetolerance="10"
     gridtolerance="10"
     objecttolerance="10"
     borderopacity="1"
     bordercolor="#666666"
     pagecolor="#ffffff" /><g
     transform="matrix(1.25,0,0,-1.25,-36.032794,72.687375)"
     inkscape:label="KA_logo"
     inkscape:groupmode="layer"
     id="g10"><path
       d="m 113.4373,50.6509 c 0.176,-0.686 0.385,-1.459 0.584,-2.059 l 1.922,-5.607 h -5.014 l 1.922,5.605 c 0.201,0.602 0.412,1.375 0.586,2.061 m 2.719,6.959 h -5.401 l -0.107,-0.295 -9.201,-25.322 h 3.39 c 0.903,0 1.592,0.111 2.149,0.504 0.555,0.396 0.877,1 1.164,1.81 l 1.426,4.022 h 7.722 l 1.428,-4.02 c 0.289,-0.814 0.621,-1.422 1.186,-1.814 0.562,-0.391 1.257,-0.502 2.16,-0.502 h 3.355 z"
       style="fill:#272932;fill-opacity:1;fill-rule:nonzero;stroke:none"
       id="path22"
       inkscape:connector-curvature="0" /><path
       d="m 76.0096,37.2974 -0.402,-0.193 0.398,0.201 -3.131,6.302 c -0.422,0.827 -0.883,1.313 -1.244,1.59 0.334,0.307 0.775,0.807 1.199,1.58 l 5.936,10.832 h -6.039 l -5.106,-9.498 c -0.162,-0.269 -0.314,-0.376 -0.554,-0.463 -0.243,-0.082 -0.594,-0.103 -1.036,-0.101 h -2.189 v 7.246 c 0,0.873 -0.186,1.602 -0.686,2.111 -0.505,0.508 -1.238,0.705 -2.13,0.705 h -2.715 v -5.078 -3.974 -16.567 h 5.531 v 10.795 h 1.91 c 0.483,0 0.885,-0.015 1.16,-0.099 0.28,-0.09 0.438,-0.198 0.602,-0.497 l 4.035,-8.103 c 0.416,-0.844 0.887,-1.41 1.535,-1.729 0.647,-0.314 1.375,-0.365 2.315,-0.367 h 3.349 l -0.342,0.657 c -0.003,0.005 -2.058,3.941 -2.396,4.65"
       style="fill:#272932;fill-opacity:1;fill-rule:nonzero;stroke:none"
       id="path26"
       inkscape:connector-curvature="0" /><path
       d="m 99.4548,57.6079 h -2.191 c -0.877,0.002 -1.608,-0.195 -2.116,-0.701 -0.504,-0.506 -0.705,-1.236 -0.701,-2.113 v -7.665 h -8.207 v 7.665 c 0,0.873 -0.183,1.601 -0.685,2.111 -0.508,0.508 -1.239,0.705 -2.133,0.703 h -2.641 v -5.078 -4.723 -15.816 h 5.459 v 10.375 h 8.207 v -10.375 h 5.457 v 15.519 5.02 5.078 z"
       style="fill:#272932;fill-opacity:1;fill-rule:nonzero;stroke:none"
       id="path30"
       inkscape:connector-curvature="0" /><path
       d="m 146.4392,57.6099 h -2.193 c -0.895,0 -1.627,-0.197 -2.129,-0.705 -0.504,-0.51 -0.69,-1.238 -0.69,-2.112 v -11.316 c 0,-0.379 0.018,-0.797 0.043,-1.209 -0.338,0.656 -0.724,1.354 -1.103,1.91 l -8.139,13.432 h -5.258 v -18.024 -2.515 -5.08 h 2.643 0.008 c 0.886,0 1.615,0.185 2.119,0.689 0.506,0.508 0.689,1.237 0.689,2.129 v 11.28 c 0,0.372 -0.015,0.785 -0.039,1.191 0.336,-0.658 0.725,-1.352 1.106,-1.899 l 8.17,-13.39 h 5.22 v 16.566 3.973 5.08 z"
       style="fill:#272932;fill-opacity:1;fill-rule:nonzero;stroke:none"
       id="path34"
       inkscape:connector-curvature="0" /><path
       d="m 164.0701,42.3384 -3.363,9.082 c -0.436,1.193 -0.977,3.291 -0.977,3.291 h -0.072 c 0,0 -0.543,-2.098 -0.977,-3.291 l -3.33,-9.082 z m -5.715,15.123 h 2.713 l 9.652,-25.434 h -0.752 c -1.808,0 -2.3,0.362 -2.953,2.098 l -2.258,6.006 h -10.091 l -2.295,-6.006 c -0.651,-1.736 -1.106,-2.098 -2.918,-2.098 h -0.735 z"
       style="fill:#272932;fill-opacity:1;fill-rule:nonzero;stroke:none"
       id="path38"
       inkscape:connector-curvature="0" /><path
       d="m 207.5115,42.3384 -3.365,9.082 c -0.434,1.193 -0.977,3.291 -0.977,3.291 h -0.072 c 0,0 -0.543,-2.098 -0.979,-3.291 l -3.328,-9.082 z m -5.717,15.123 h 2.713 l 9.652,-25.434 h -0.752 c -1.808,0 -2.3,0.362 -2.951,2.098 l -2.258,6.006 h -10.093 l -2.295,-6.006 c -0.651,-1.736 -1.106,-2.098 -2.916,-2.098 h -0.738 z"
       style="fill:#272932;fill-opacity:1;fill-rule:nonzero;stroke:none"
       id="path42"
       inkscape:connector-curvature="0" /><path
       d="m 257.6091,57.4614 h 2.568 l 6.729,-14.797 c 0.615,-1.303 1.268,-3.002 1.268,-3.002 h 0.072 c 0,0 0.65,1.699 1.228,3.002 l 6.731,14.797 h 2.568 l 2.215,-25.434 h -0.731 c -1.556,0 -2.099,0.653 -2.207,2.208 l -1.193,15.447 c -0.111,1.377 -0.111,3.547 -0.111,3.547 h -0.072 c 0,0 -0.688,-2.244 -1.303,-3.547 l -6.039,-12.914 h -2.278 l -6.007,12.914 c -0.58,1.267 -1.338,3.619 -1.338,3.619 h -0.073 c 0,0 0,-2.242 -0.109,-3.619 l -1.195,-15.447 c -0.108,-1.555 -0.651,-2.208 -2.207,-2.208 h -0.592 z"
       style="fill:#272932;fill-opacity:1;fill-rule:nonzero;stroke:none"
       id="path46"
       inkscape:connector-curvature="0" /><path
       d="m 289.787,43.0981 -8.857,14.363 h 0.752 c 1.736,0 2.386,-0.252 3.472,-2.025 l 4.307,-7.199 c 0.795,-1.338 1.552,-2.86 1.552,-2.86 h 0.075 c 0,0 0.759,1.522 1.554,2.86 l 4.305,7.199 c 1.086,1.773 1.736,2.025 3.475,2.025 h 0.752 l -8.856,-14.363 v -11.07 h -2.531 z"
       style="fill:#272932;fill-opacity:1;fill-rule:nonzero;stroke:none"
       id="path50"
       inkscape:connector-curvature="0" /><path
       d="m 189.6755,51.2856 c -0.98,2.088 -3.752,4.477 -7.818,4.477 -5.643,0 -9.983,-4.415 -9.983,-10.565 0,-6.078 4.305,-10.963 10.094,-10.963 2.756,0 4.965,0.916 6.34,1.93 1.672,1.23 3.428,-0.193 3.428,-0.193 0,0 -3.51,-4.122 -9.805,-4.122 -7.453,0 -12.699,5.932 -12.699,13.348 0,7.344 5.39,12.951 12.554,12.951 3.618,0 8.078,-1.605 9.768,-5.441 0.791,-1.74 0.892,-2.567 0.892,-2.567 0,0 -2.113,-0.253 -2.771,1.145"
       style="fill:#272932;fill-opacity:1;fill-rule:nonzero;stroke:none"
       id="path54"
       inkscape:connector-curvature="0" /><path
       d="m 223.3709,34.272 h -4.27 c -0.505,0 -0.794,0.252 -0.794,0.797 v 20.15 h 5.064 c 6.223,0 10.383,-3.691 10.383,-10.455 0,-6.803 -4.125,-10.492 -10.383,-10.492 m 0.252,23.189 h -7.852 V 55.219 53.067 34.235 c 0,-1.555 0.653,-2.207 2.207,-2.207 h 5.645 c 7.67,0 12.771,4.633 12.771,12.736 0,8.029 -5.101,12.697 -12.771,12.697"
       style="fill:#272932;fill-opacity:1;fill-rule:nonzero;stroke:none"
       id="path58"
       inkscape:connector-curvature="0" /><path
       d="m 250.7693,34.272 h -2.617 -6.317 c -0.507,0 -0.796,0.252 -0.796,0.797 v 8.644 h 9.55 v 2.243 h -9.55 v 9.263 h 6.478 2.203 3.186 v 0.033 c 0,1.559 -0.653,2.209 -2.209,2.209 h -12.192 V 55.219 52.303 34.235 c 0,-1.555 0.653,-2.207 2.207,-2.207 h 11 c 1.553,0 2.205,0.652 2.205,2.207 v 0.037 z"
       style="fill:#272932;fill-opacity:1;fill-rule:nonzero;stroke:none"
       id="path62"
       inkscape:connector-curvature="0" /><path
       d="m 29.9529,33.6079 c 0,0 -4.051,9.692 3.21,16.919 6.597,6.561 16.55,7.575 18.277,7.623 0,0 2.673,-8.772 -4,-18.717 -6.666,-9.947 -15.912,-7.249 -15.912,-7.249 0,0 9.134,11.644 8.03,11.574 -0.766,-0.046 -5.56,-5.323 -9.605,-10.15"
       style="fill:#90ba24;fill-opacity:1;fill-rule:nonzero;stroke:none"
       id="path66"
       inkscape:connector-curvature="0" /></g></svg>
